<svg width="48" height="49" viewBox="0 0 48 49" fill="none" xmlns="http://www.w3.org/2000/svg">
<g clip-path="url(#clip0_1_220)">
<path d="M40.2833 13.0087C41.7313 13.3868 43.2609 12.5069 43.6501 11.0678C44.2799 8.73833 41.677 6.81302 39.6187 7.98605C38.0699 8.86892 37.7627 11.0616 39.0571 12.3195L34.9032 19.3911L26.4024 19.3673L21.99 11.7408C21.8645 11.5238 21.6329 11.39 21.3822 11.3897L12.4995 11.3791L8.90131 5.15988C9.23188 4.82687 9.47189 4.41239 9.5963 3.94653C9.98556 2.48849 9.11253 0.976347 7.65009 0.575835C6.93738 0.380548 6.19364 0.47477 5.55574 0.841062C4.92216 1.20492 4.46943 1.79406 4.28099 2.50002C4.04651 3.37839 5.40527 3.74112 5.63965 2.86275C5.82828 2.15604 6.5769 1.73968 7.27864 1.93206C7.998 2.12913 8.42823 2.87006 8.23763 3.5837C8.05135 4.28132 7.29411 4.70508 6.59865 4.51439C5.72187 4.2741 5.35024 5.63061 6.22711 5.87071C6.71415 6.00337 7.20101 6.00328 7.68777 5.87033L11.2818 12.0822L8.09147 17.5235C6.61384 17.0639 5.0027 17.9431 4.60087 19.4286C4.41018 20.1338 4.50665 20.8706 4.87257 21.503C5.52434 22.6297 6.93813 23.1444 8.16301 22.7219L11.4333 28.3744C11.5588 28.5913 11.7904 28.7251 12.0411 28.7254L20.9192 28.7361L22.2481 31.0329C22.6887 31.7942 23.9197 31.1138 23.4653 30.3286L22.1393 28.0368L26.3978 20.7735L34.8981 20.7974L37.9561 26.1025C36.8883 27.1424 36.8765 28.9348 37.9343 29.9883L34.8445 35.2401L26.3435 35.3035L25.3985 33.6701C24.9433 32.8832 23.726 33.5874 24.1813 34.3744L25.126 36.0072L20.9537 43.1103C20.2665 42.9195 19.5054 42.991 18.8388 43.371C17.5437 44.1093 17.0629 45.8102 17.8171 47.114C18.5647 48.4061 20.2787 48.8612 21.5768 48.1213C23.1115 47.2469 23.4302 45.0834 22.169 43.8182L26.3443 36.71L34.8443 36.6465L38.5033 42.9842C37.5734 43.8283 37.3422 45.2764 37.9746 46.3691C38.7222 47.6613 40.4362 48.1163 41.7343 47.3764C43.0294 46.6383 43.5104 44.937 42.756 43.6334C42.1389 42.5667 40.9013 42.0701 39.7507 42.3324L36.0623 35.9437L39.1521 30.6919C40.6085 31.091 42.1583 30.2123 42.551 28.7604C43.0928 26.7568 41.1611 24.8823 39.1794 25.4086L36.1187 20.0986L40.2833 13.0087ZM39.6829 10.0217C39.8358 9.45619 40.4023 9.02849 40.9906 9.02849C41.8392 9.02849 42.5173 9.86992 42.2927 10.7007C41.9893 11.8221 40.4028 12.0418 39.8143 11.0249C39.6373 10.719 39.5906 10.3628 39.6829 10.0217ZM21.5127 46.0857C21.4192 46.4314 21.1946 46.7205 20.8804 46.8996C19.3787 47.755 18.0182 45.4578 19.5352 44.5928C20.1778 44.2266 21.0145 44.4487 21.3813 45.0826C21.5583 45.3883 21.605 45.7446 21.5127 46.0857ZM6.08985 20.7988C5.72356 20.1655 5.9586 19.3421 6.59077 18.9817C7.23336 18.6156 8.07 18.8377 8.43677 19.4715C8.81393 20.1236 8.52817 20.8962 7.93584 21.2886C7.28792 21.6579 6.4598 21.4381 6.08985 20.7988ZM9.33529 21.9398C10.2479 20.9081 10.2273 19.2778 9.28429 18.2697L12.4998 12.7853L20.9757 12.7955L25.1821 20.0658L20.9232 27.3298L12.4479 27.3196L9.33529 21.9398ZM40.3681 43.6685C41.7006 43.6685 42.2179 45.482 41.0378 46.1547C40.3898 46.5238 39.5616 46.3042 39.1917 45.6648C38.6897 44.7969 39.3676 43.6685 40.3681 43.6685ZM39.8914 26.7212C40.7399 26.7212 41.418 27.5627 41.1933 28.3934C40.8899 29.515 39.3035 29.7345 38.715 28.7176C38.213 27.8497 38.8907 26.7212 39.8914 26.7212Z" fill="white"/>
</g>
<defs>
<clipPath id="clip0_1_220">
<rect width="48" height="48" fill="white" transform="translate(0 0.476364)"/>
</clipPath>
</defs>
</svg>
