<svg width="45" height="45" viewBox="0 0 45 45" fill="none" xmlns="http://www.w3.org/2000/svg">
<g clip-path="url(#clip0_1_428)">
<path d="M44.2969 24.6094H0.703125V26.0156H44.2969V24.6094Z" fill="white"/>
<path d="M42.2726 28.6221C41.5041 27.8536 40.4618 27.4219 39.375 27.4219C38.2882 27.4219 37.2459 27.8536 36.4775 28.6221L35.6534 29.4462C35.1485 29.9509 34.4639 30.2344 33.75 30.2344C33.0362 30.2344 32.3515 29.9509 31.8467 29.4462L31.0226 28.6221C30.2541 27.8536 29.2118 27.4219 28.125 27.4219C27.0382 27.4219 25.9959 27.8536 25.2275 28.6221L24.4034 29.4462C23.8985 29.9509 23.2139 30.2344 22.5 30.2344C21.7862 30.2344 21.1015 29.9509 20.5967 29.4462L19.7726 28.6221C19.0041 27.8536 17.9618 27.4219 16.875 27.4219C15.7882 27.4219 14.7459 27.8536 13.9775 28.6221L13.1534 29.4462C12.6485 29.9509 11.9639 30.2344 11.25 30.2344C10.5362 30.2344 9.85155 29.9509 9.34668 29.4462L8.52262 28.6221C7.75413 27.8536 6.71184 27.4219 5.62504 27.4219C4.53824 27.4219 3.49595 27.8536 2.72746 28.6221L0.206055 31.1435L1.20027 32.1377L3.72168 29.6163C4.22655 29.1117 4.91118 28.8281 5.62504 28.8281C6.3389 28.8281 7.02353 29.1117 7.5284 29.6163L8.35246 30.4404C9.12095 31.2089 10.1632 31.6406 11.25 31.6406C12.3368 31.6406 13.3791 31.2089 14.1476 30.4404L14.9717 29.6163C15.4765 29.1117 16.1612 28.8281 16.875 28.8281C17.5889 28.8281 18.2735 29.1117 18.7784 29.6163L19.6025 30.4404C20.3709 31.2089 21.4132 31.6406 22.5 31.6406C23.5868 31.6406 24.6291 31.2089 25.3976 30.4404L26.2217 29.6163C26.7265 29.1117 27.4112 28.8281 28.125 28.8281C28.8389 28.8281 29.5235 29.1117 30.0284 29.6163L30.8525 30.4404C31.6209 31.2089 32.6632 31.6406 33.75 31.6406C34.8368 31.6406 35.8791 31.2089 36.6476 30.4404L37.4717 29.6163C37.9765 29.1117 38.6612 28.8281 39.375 28.8281C40.0889 28.8281 40.7735 29.1117 41.2784 29.6163L43.7998 32.1377L44.794 31.1435L42.2726 28.6221Z" fill="white"/>
<path d="M5.625 31.6406C5.06874 31.6406 4.52497 31.8056 4.06246 32.1146C3.59995 32.4237 3.23946 32.8629 3.02659 33.3768C2.81372 33.8907 2.75802 34.4562 2.86654 35.0018C2.97506 35.5474 3.24293 36.0485 3.63626 36.4419C4.0296 36.8352 4.53074 37.1031 5.07631 37.2116C5.62188 37.3201 6.18738 37.2644 6.7013 37.0515C7.21522 36.8387 7.65447 36.4782 7.96351 36.0157C8.27255 35.5532 8.4375 35.0094 8.4375 34.4531C8.4375 33.7072 8.14118 32.9918 7.61374 32.4644C7.08629 31.9369 6.37092 31.6406 5.625 31.6406ZM5.625 35.8594C5.34687 35.8594 5.07499 35.7769 4.84373 35.6224C4.61247 35.4679 4.43223 35.2482 4.3258 34.9913C4.21936 34.7343 4.19151 34.4516 4.24577 34.1788C4.30003 33.906 4.43396 33.6554 4.63063 33.4588C4.8273 33.2621 5.07787 33.1282 5.35066 33.0739C5.62344 33.0196 5.90619 33.0475 6.16315 33.1539C6.42011 33.2604 6.63973 33.4406 6.79426 33.6719C6.94878 33.9031 7.03125 34.175 7.03125 34.4531C7.03125 34.8261 6.88309 35.1838 6.61937 35.4475C6.35565 35.7112 5.99796 35.8594 5.625 35.8594Z" fill="white"/>
<path d="M16.875 31.6406C16.3187 31.6406 15.775 31.8056 15.3125 32.1146C14.8499 32.4237 14.4895 32.8629 14.2766 33.3768C14.0637 33.8907 14.008 34.4562 14.1165 35.0018C14.2251 35.5474 14.4929 36.0485 14.8863 36.4419C15.2796 36.8352 15.7807 37.1031 16.3263 37.2116C16.8719 37.3201 17.4374 37.2644 17.9513 37.0515C18.4652 36.8387 18.9045 36.4782 19.2135 36.0157C19.5226 35.5532 19.6875 35.0094 19.6875 34.4531C19.6875 33.7072 19.3912 32.9918 18.8637 32.4644C18.3363 31.9369 17.6209 31.6406 16.875 31.6406ZM16.875 35.8594C16.5969 35.8594 16.325 35.7769 16.0937 35.6224C15.8625 35.4679 15.6822 35.2482 15.5758 34.9913C15.4694 34.7343 15.4415 34.4516 15.4958 34.1788C15.55 33.906 15.684 33.6554 15.8806 33.4588C16.0773 33.2621 16.3279 33.1282 16.6007 33.0739C16.8734 33.0196 17.1562 33.0475 17.4132 33.1539C17.6701 33.2604 17.8897 33.4406 18.0443 33.6719C18.1988 33.9031 18.2813 34.175 18.2813 34.4531C18.2813 34.8261 18.1331 35.1838 17.8694 35.4475C17.6056 35.7112 17.248 35.8594 16.875 35.8594Z" fill="white"/>
<path d="M28.125 31.6406C27.5687 31.6406 27.025 31.8056 26.5625 32.1146C26.0999 32.4237 25.7395 32.8629 25.5266 33.3768C25.3137 33.8907 25.258 34.4562 25.3665 35.0018C25.4751 35.5474 25.7429 36.0485 26.1363 36.4419C26.5296 36.8352 27.0307 37.1031 27.5763 37.2116C28.1219 37.3201 28.6874 37.2644 29.2013 37.0515C29.7152 36.8387 30.1545 36.4782 30.4635 36.0157C30.7726 35.5532 30.9375 35.0094 30.9375 34.4531C30.9375 33.7072 30.6412 32.9918 30.1137 32.4644C29.5863 31.9369 28.8709 31.6406 28.125 31.6406ZM28.125 35.8594C27.8469 35.8594 27.575 35.7769 27.3437 35.6224C27.1125 35.4679 26.9322 35.2482 26.8258 34.9913C26.7194 34.7343 26.6915 34.4516 26.7458 34.1788C26.8 33.906 26.934 33.6554 27.1306 33.4588C27.3273 33.2621 27.5779 33.1282 27.8507 33.0739C28.1234 33.0196 28.4062 33.0475 28.6631 33.1539C28.9201 33.2604 29.1397 33.4406 29.2943 33.6719C29.4488 33.9031 29.5313 34.175 29.5313 34.4531C29.5313 34.8261 29.3831 35.1838 29.1194 35.4475C28.8556 35.7112 28.498 35.8594 28.125 35.8594Z" fill="white"/>
<path d="M39.375 31.6406C38.8187 31.6406 38.275 31.8056 37.8125 32.1146C37.3499 32.4237 36.9895 32.8629 36.7766 33.3768C36.5637 33.8907 36.508 34.4562 36.6165 35.0018C36.7251 35.5474 36.9929 36.0485 37.3863 36.4419C37.7796 36.8352 38.2807 37.1031 38.8263 37.2116C39.3719 37.3201 39.9374 37.2644 40.4513 37.0515C40.9652 36.8387 41.4045 36.4782 41.7135 36.0157C42.0226 35.5532 42.1875 35.0094 42.1875 34.4531C42.1875 33.7072 41.8912 32.9918 41.3637 32.4644C40.8363 31.9369 40.1209 31.6406 39.375 31.6406ZM39.375 35.8594C39.0969 35.8594 38.825 35.7769 38.5937 35.6224C38.3625 35.4679 38.1822 35.2482 38.0758 34.9913C37.9694 34.7343 37.9415 34.4516 37.9958 34.1788C38.05 33.906 38.184 33.6554 38.3806 33.4588C38.5773 33.2621 38.8279 33.1282 39.1007 33.0739C39.3734 33.0196 39.6562 33.0475 39.9131 33.1539C40.1701 33.2604 40.3897 33.4406 40.5443 33.6719C40.6988 33.9031 40.7813 34.175 40.7813 34.4531C40.7813 34.8261 40.6331 35.1838 40.3694 35.4475C40.1056 35.7112 39.748 35.8594 39.375 35.8594Z" fill="white"/>
<path d="M11.25 36.4922C10.8328 36.4922 10.425 36.6159 10.0781 36.8477C9.73121 37.0795 9.46085 37.4089 9.30119 37.7943C9.14154 38.1798 9.09977 38.6039 9.18116 39.0131C9.26255 39.4223 9.46345 39.7981 9.75845 40.0931C10.0534 40.3881 10.4293 40.589 10.8385 40.6704C11.2477 40.7518 11.6718 40.71 12.0572 40.5504C12.4427 40.3907 12.7721 40.1204 13.0039 39.7735C13.2357 39.4266 13.3594 39.0188 13.3594 38.6016C13.3594 38.0421 13.1371 37.5056 12.7416 37.11C12.346 36.7144 11.8094 36.4922 11.25 36.4922ZM11.25 39.3047C11.1109 39.3047 10.975 39.2634 10.8594 39.1862C10.7437 39.1089 10.6536 38.9991 10.6004 38.8706C10.5472 38.7422 10.5333 38.6008 10.5604 38.4644C10.5875 38.328 10.6545 38.2027 10.7528 38.1044C10.8512 38.006 10.9764 37.9391 11.1128 37.9119C11.2492 37.8848 11.3906 37.8987 11.5191 37.952C11.6476 38.0052 11.7574 38.0953 11.8346 38.2109C11.9119 38.3266 11.9531 38.4625 11.9531 38.6016C11.9531 38.788 11.879 38.9669 11.7472 39.0987C11.6153 39.2306 11.4365 39.3047 11.25 39.3047Z" fill="white"/>
<path d="M22.5 36.5625C22.0828 36.5625 21.675 36.6862 21.3281 36.918C20.9812 37.1498 20.7108 37.4792 20.5512 37.8647C20.3915 38.2501 20.3498 38.6742 20.4312 39.0834C20.5125 39.4926 20.7134 39.8684 21.0084 40.1634C21.3034 40.4584 21.6793 40.6593 22.0885 40.7407C22.4977 40.8221 22.9218 40.7803 23.3072 40.6207C23.6927 40.461 24.0221 40.1907 24.2539 39.8438C24.4857 39.4969 24.6094 39.0891 24.6094 38.6719C24.6094 38.1124 24.3871 37.5759 23.9916 37.1803C23.596 36.7847 23.0594 36.5625 22.5 36.5625ZM22.5 39.375C22.3609 39.375 22.225 39.3338 22.1094 39.2565C21.9937 39.1792 21.9036 39.0694 21.8504 38.9409C21.7972 38.8125 21.7833 38.6711 21.8104 38.5347C21.8375 38.3983 21.9045 38.273 22.0028 38.1747C22.1012 38.0764 22.2264 38.0094 22.3628 37.9823C22.4992 37.9551 22.6406 37.9691 22.7691 38.0223C22.8976 38.0755 23.0074 38.1656 23.0846 38.2812C23.1619 38.3969 23.2031 38.5328 23.2031 38.6719C23.2031 38.8584 23.129 39.0372 22.9972 39.1691C22.8653 39.3009 22.6865 39.375 22.5 39.375Z" fill="white"/>
<path d="M33.75 36.5625C33.3328 36.5625 32.925 36.6862 32.5781 36.918C32.2312 37.1498 31.9608 37.4792 31.8012 37.8647C31.6415 38.2501 31.5998 38.6742 31.6812 39.0834C31.7625 39.4926 31.9634 39.8684 32.2584 40.1634C32.5534 40.4584 32.9293 40.6593 33.3385 40.7407C33.7477 40.8221 34.1718 40.7803 34.5572 40.6207C34.9427 40.461 35.2721 40.1907 35.5039 39.8438C35.7357 39.4969 35.8594 39.0891 35.8594 38.6719C35.8594 38.1124 35.6371 37.5759 35.2416 37.1803C34.846 36.7847 34.3094 36.5625 33.75 36.5625ZM33.75 39.375C33.6109 39.375 33.475 39.3338 33.3594 39.2565C33.2437 39.1792 33.1536 39.0694 33.1004 38.9409C33.0472 38.8125 33.0333 38.6711 33.0604 38.5347C33.0875 38.3983 33.1545 38.273 33.2528 38.1747C33.3511 38.0764 33.4764 38.0094 33.6128 37.9823C33.7492 37.9551 33.8906 37.9691 34.0191 38.0223C34.1476 38.0755 34.2574 38.1656 34.3346 38.2812C34.4119 38.3969 34.4531 38.5328 34.4531 38.6719C34.4531 38.8584 34.379 39.0372 34.2472 39.1691C34.1153 39.3009 33.9365 39.375 33.75 39.375Z" fill="white"/>
<path d="M16.875 44.2969C17.6517 44.2969 18.2812 43.6673 18.2812 42.8906C18.2812 42.114 17.6517 41.4844 16.875 41.4844C16.0983 41.4844 15.4688 42.114 15.4688 42.8906C15.4688 43.6673 16.0983 44.2969 16.875 44.2969Z" fill="white"/>
<path d="M28.125 44.2969C28.9017 44.2969 29.5312 43.6673 29.5312 42.8906C29.5312 42.114 28.9017 41.4844 28.125 41.4844C27.3483 41.4844 26.7188 42.114 26.7188 42.8906C26.7188 43.6673 27.3483 44.2969 28.125 44.2969Z" fill="white"/>
<path d="M39.375 44.2969C40.1517 44.2969 40.7812 43.6673 40.7812 42.8906C40.7812 42.114 40.1517 41.4844 39.375 41.4844C38.5983 41.4844 37.9688 42.114 37.9688 42.8906C37.9688 43.6673 38.5983 44.2969 39.375 44.2969Z" fill="white"/>
<path d="M5.625 44.2969C6.40165 44.2969 7.03125 43.6673 7.03125 42.8906C7.03125 42.114 6.40165 41.4844 5.625 41.4844C4.84835 41.4844 4.21875 42.114 4.21875 42.8906C4.21875 43.6673 4.84835 44.2969 5.625 44.2969Z" fill="white"/>
<path d="M15.4688 11.9531C15.4601 12.9772 15.6772 13.9905 16.1045 14.9212C16.5318 15.8519 17.1588 16.677 17.9411 17.3379C18.7233 17.9989 19.6415 18.4794 20.6304 18.7454C21.6194 19.0113 22.6547 19.0562 23.663 18.8768C23.9323 19.2228 24.3031 19.4759 24.7234 19.6006C25.1438 19.7253 25.5926 19.7154 26.007 19.5722C26.4214 19.429 26.7807 19.1598 27.0344 18.8022C27.2881 18.4446 27.4236 18.0166 27.4219 17.5781C27.4195 17.3954 27.393 17.2139 27.3431 17.0381C28.4462 16.007 29.1864 14.6468 29.4532 13.1606C29.7201 11.6744 29.4993 10.1417 28.8239 8.79123C28.1484 7.44074 27.0545 6.34479 25.7052 5.66686C24.356 4.98892 22.8237 4.76534 21.337 5.02945C21.0415 4.6417 20.6199 4.36922 20.145 4.25901C19.6701 4.1488 19.1716 4.20776 18.7355 4.42572C18.2994 4.64369 17.9531 5.00699 17.7562 5.45299C17.5592 5.89898 17.5241 6.39971 17.6569 6.86882C16.9657 7.52305 16.4152 8.31134 16.039 9.18552C15.6627 10.0597 15.4687 11.0014 15.4688 11.9531ZM25.3125 18.2812C25.1734 18.2812 25.0375 18.24 24.9219 18.1627C24.8062 18.0855 24.7161 17.9757 24.6629 17.8472C24.6097 17.7187 24.5958 17.5773 24.6229 17.4409C24.65 17.3046 24.717 17.1793 24.8153 17.0809C24.9137 16.9826 25.0389 16.9156 25.1753 16.8885C25.3117 16.8614 25.4531 16.8753 25.5816 16.9285C25.7101 16.9817 25.8199 17.0719 25.8971 17.1875C25.9744 17.3031 26.0156 17.4391 26.0156 17.5781C26.0156 17.7646 25.9415 17.9434 25.8097 18.0753C25.6778 18.2072 25.499 18.2812 25.3125 18.2812ZM28.125 11.9531C28.1272 13.4152 27.5577 14.8202 26.538 15.8681C26.2272 15.6429 25.8606 15.5072 25.478 15.4759C25.0955 15.4445 24.7116 15.5187 24.3683 15.6903C24.0249 15.8619 23.7352 16.1244 23.5306 16.4492C23.3261 16.774 23.2145 17.1486 23.208 17.5324C22.9732 17.5621 22.7367 17.5774 22.5 17.5781C21.395 17.5779 20.3146 17.2523 19.3935 16.6419C18.4725 16.0315 17.7516 15.1633 17.3209 14.1457C16.8902 13.1281 16.7687 12.0063 16.9716 10.9201C17.1745 9.83389 17.6929 8.83154 18.462 8.03812C18.7728 8.26334 19.1394 8.399 19.522 8.43036C19.9045 8.46171 20.2884 8.38755 20.6317 8.21595C20.9751 8.04435 21.2648 7.78187 21.4694 7.45708C21.6739 7.13229 21.7855 6.75761 21.792 6.37382C22.0268 6.34414 22.2633 6.32887 22.5 6.32812C23.9913 6.3298 25.4211 6.92297 26.4756 7.97749C27.5302 9.03202 28.1233 10.4618 28.125 11.9531ZM19.6875 5.625C19.8266 5.625 19.9625 5.66623 20.0781 5.74349C20.1938 5.82075 20.2839 5.93057 20.3371 6.05905C20.3903 6.18753 20.4042 6.3289 20.3771 6.46529C20.35 6.60169 20.283 6.72697 20.1847 6.8253C20.0864 6.92364 19.9611 6.99061 19.8247 7.01774C19.6883 7.04487 19.5469 7.03094 19.4184 6.97772C19.2899 6.92451 19.1801 6.83438 19.1029 6.71876C19.0256 6.60313 18.9844 6.46719 18.9844 6.32812C18.9844 6.14164 19.0585 5.9628 19.1903 5.83094C19.3222 5.69907 19.501 5.625 19.6875 5.625Z" fill="white"/>
<path d="M18.9844 11.9531C18.9844 12.6485 19.1906 13.3282 19.5769 13.9063C19.9632 14.4844 20.5122 14.9351 21.1546 15.2011C21.797 15.4672 22.5039 15.5369 23.1859 15.4012C23.8678 15.2655 24.4943 14.9307 24.9859 14.439C25.4776 13.9474 25.8124 13.321 25.9481 12.639C26.0837 11.957 26.0141 11.2502 25.748 10.6078C25.4819 9.96536 25.0313 9.41629 24.4532 9.02999C23.875 8.64369 23.1953 8.4375 22.5 8.4375C21.5679 8.43862 20.6744 8.80937 20.0153 9.46844C19.3562 10.1275 18.9855 11.0211 18.9844 11.9531ZM24.6094 11.9531C24.6094 12.3703 24.4857 12.7781 24.2539 13.125C24.0221 13.4719 23.6927 13.7423 23.3072 13.9019C22.9218 14.0616 22.4977 14.1034 22.0885 14.022C21.6793 13.9406 21.3034 13.7397 21.0084 13.4447C20.7134 13.1497 20.5125 12.7738 20.4312 12.3646C20.3498 11.9555 20.3915 11.5313 20.5512 11.1459C20.7108 10.7605 20.9812 10.431 21.3281 10.1992C21.675 9.96746 22.0828 9.84375 22.5 9.84375C23.0594 9.84375 23.596 10.066 23.9916 10.4616C24.3871 10.8572 24.6094 11.3937 24.6094 11.9531Z" fill="white"/>
<path d="M13.3594 17.5781C13.43 17.5747 13.5004 17.5677 13.5703 17.557C14.415 18.9014 15.5518 20.0381 16.8961 20.8828C16.8855 20.9527 16.8784 21.0231 16.875 21.0938C16.8741 21.5393 17.0146 21.9737 17.2763 22.3343C17.538 22.6949 17.9075 22.9631 18.3314 23.1004C18.7553 23.2376 19.2118 23.2367 19.6352 23.0979C20.0586 22.959 20.427 22.6894 20.6873 22.3277C22.4649 22.6565 24.2976 22.5138 26.0028 21.9138C27.7081 21.3139 29.2264 20.2777 30.4066 18.9084C30.5795 18.9566 30.758 18.9822 30.9375 18.9844C31.3514 18.9851 31.7563 18.8638 32.1017 18.6357C32.447 18.4075 32.7174 18.0826 32.8791 17.7016C33.0408 17.3206 33.0866 16.9004 33.0108 16.4935C32.9349 16.0866 32.7408 15.7111 32.4527 15.4139C32.8438 14.3019 33.0447 13.1319 33.0469 11.9531C33.0405 10.0319 32.5119 8.14863 31.5176 6.50474C30.5233 4.86084 29.1008 3.51822 27.4022 2.62055C27.3673 2.20429 27.2086 1.80801 26.9465 1.48274C26.6845 1.15746 26.331 0.918104 25.9317 0.795488C25.5324 0.672873 25.1055 0.672617 24.7061 0.794755C24.3066 0.916892 23.9528 1.15583 23.6904 1.48079C23.2953 1.43379 22.8979 1.40891 22.5 1.40625C21.0019 1.40517 19.5209 1.72517 18.1569 2.34471C16.7929 2.96425 15.5775 3.86894 14.5926 4.99782C14.42 4.94958 14.2418 4.92405 14.0625 4.92188C13.6486 4.92114 13.2437 5.04243 12.8983 5.27058C12.553 5.49873 12.2825 5.82363 12.1209 6.20464C11.9592 6.58565 11.9134 7.00588 11.9892 7.41277C12.0651 7.81966 12.2592 8.19517 12.5473 8.49235C11.941 10.1815 11.7954 12.0017 12.1254 13.7658C11.7638 14.0261 11.4941 14.3945 11.3553 14.8179C11.2164 15.2413 11.2155 15.6978 11.3528 16.1217C11.49 16.5457 11.7582 16.9151 12.1188 17.1768C12.4794 17.4386 12.9138 17.5791 13.3594 17.5781ZM12.6562 15.4688C12.6562 15.3297 12.6975 15.1937 12.7747 15.0781C12.852 14.9625 12.9618 14.8724 13.0903 14.8192C13.2188 14.7659 13.3601 14.752 13.4965 14.7791C13.6329 14.8063 13.7582 14.8732 13.8566 14.9716C13.9549 15.0699 14.0219 15.1952 14.049 15.3316C14.0761 15.468 14.0622 15.6094 14.009 15.7378C13.9558 15.8663 13.8656 15.9761 13.75 16.0534C13.6344 16.1306 13.4984 16.1719 13.3594 16.1719C13.1729 16.1719 12.994 16.0978 12.8622 15.9659C12.7303 15.8341 12.6562 15.6552 12.6562 15.4688ZM18.9844 21.7969C18.8453 21.7969 18.7094 21.7556 18.5937 21.6784C18.4781 21.6011 18.388 21.4913 18.3348 21.3628C18.2815 21.2344 18.2676 21.093 18.2948 20.9566C18.3219 20.8202 18.3888 20.6949 18.4872 20.5966C18.5855 20.4982 18.7108 20.4313 18.8472 20.4041C18.9836 20.377 19.125 20.3909 19.2534 20.4442C19.3819 20.4974 19.4917 20.5875 19.569 20.7031C19.6463 20.8187 19.6875 20.9547 19.6875 21.0938C19.6875 21.2802 19.6134 21.4591 19.4816 21.5909C19.3497 21.7228 19.1708 21.7969 18.9844 21.7969ZM30.9375 17.5781C30.7984 17.5781 30.6625 17.5369 30.5469 17.4596C30.4312 17.3824 30.3411 17.2726 30.2879 17.1441C30.2347 17.0156 30.2207 16.8742 30.2479 16.7378C30.275 16.6014 30.342 16.4762 30.4403 16.3778C30.5386 16.2795 30.6639 16.2125 30.8003 16.1854C30.9367 16.1583 31.0781 16.1722 31.2066 16.2254C31.335 16.2786 31.4449 16.3687 31.5221 16.4844C31.5994 16.6 31.6406 16.7359 31.6406 16.875C31.6406 17.0615 31.5665 17.2403 31.4347 17.3722C31.3028 17.5041 31.124 17.5781 30.9375 17.5781ZM25.3125 2.10938C25.4516 2.10938 25.5875 2.15062 25.7031 2.22788C25.8188 2.30514 25.9089 2.41495 25.9621 2.54343C26.0153 2.67191 26.0292 2.81328 26.0021 2.94968C25.975 3.08607 25.908 3.21136 25.8097 3.30969C25.7113 3.40802 25.5861 3.47499 25.4497 3.50212C25.3133 3.52925 25.1719 3.51533 25.0434 3.46211C24.9149 3.40889 24.8051 3.31877 24.7279 3.20314C24.6506 3.08751 24.6094 2.95157 24.6094 2.81251C24.6094 2.62602 24.6834 2.44718 24.8153 2.31532C24.9472 2.18346 25.126 2.10938 25.3125 2.10938ZM22.5 2.81251C22.7344 2.81251 22.9687 2.82165 23.2031 2.83993C23.2079 3.28611 23.3543 3.71924 23.6213 4.07675C23.8883 4.43426 24.2621 4.69765 24.6885 4.82888C25.115 4.96011 25.5722 4.95238 25.994 4.80682C26.4158 4.66126 26.7804 4.38539 27.0351 4.01907C28.4305 4.82222 29.5904 5.97788 30.3987 7.37032C31.207 8.76276 31.6352 10.3431 31.6406 11.9531C31.6395 12.9171 31.485 13.8748 31.1829 14.7902C31.1016 14.7774 31.0197 14.7692 30.9375 14.7656C30.378 14.7656 29.8415 14.9879 29.4459 15.3835C29.0504 15.779 28.8281 16.3156 28.8281 16.875C28.8292 17.32 28.9723 17.7531 29.2366 18.1111C28.3843 19.0512 27.3445 19.8023 26.1842 20.316C25.024 20.8297 23.7689 21.0947 22.5 21.0938C22.0246 21.0894 21.5502 21.0483 21.0811 20.9707C21.0594 20.567 20.9216 20.1782 20.6842 19.8509C20.4469 19.5236 20.1201 19.2718 19.7431 19.1258C19.3661 18.9797 18.955 18.9456 18.5591 19.0275C18.1632 19.1095 17.7994 19.304 17.5113 19.5877C16.4562 18.899 15.5551 17.9994 14.8648 16.9453C15.1484 16.6573 15.3429 16.2936 15.4249 15.8977C15.5068 15.5019 15.4728 15.0908 15.3268 14.7139C15.1809 14.3369 14.9292 14.0101 14.602 13.7727C14.2748 13.5353 13.8861 13.3974 13.4824 13.3756C13.4047 12.9053 13.3636 12.4297 13.3594 11.9531C13.3605 10.9891 13.515 10.0315 13.8171 9.11602C13.8984 9.12888 13.9803 9.1371 14.0625 9.14063C14.4518 9.14225 14.8339 9.03568 15.1661 8.8328C15.4984 8.62993 15.7677 8.33873 15.9441 7.99169C16.1205 7.64466 16.197 7.25544 16.1651 6.86746C16.1332 6.47948 15.9941 6.108 15.7634 5.79446C16.6159 4.85467 17.6557 4.10382 18.816 3.59024C19.9762 3.07666 21.2312 2.81173 22.5 2.81251ZM14.0625 6.32813C14.2016 6.32813 14.3375 6.36937 14.4531 6.44663C14.5688 6.52389 14.6589 6.6337 14.7121 6.76218C14.7653 6.89066 14.7792 7.03203 14.7521 7.16843C14.725 7.30482 14.658 7.43011 14.5597 7.52844C14.4613 7.62677 14.3361 7.69374 14.1997 7.72087C14.0633 7.748 13.9219 7.73408 13.7934 7.68086C13.6649 7.62764 13.5551 7.53752 13.4779 7.42189C13.4006 7.30626 13.3594 7.17032 13.3594 7.03125C13.3594 6.84477 13.4334 6.66593 13.5653 6.53407C13.6972 6.40221 13.876 6.32813 14.0625 6.32813Z" fill="white"/>
</g>
<defs>
<clipPath id="clip0_1_428">
<rect width="45" height="45" fill="white"/>
</clipPath>
</defs>
</svg>
