<svg width="46" height="46" viewBox="0 0 46 46" fill="none" xmlns="http://www.w3.org/2000/svg">
<g clip-path="url(#clip0_1_421)">
<path d="M16.1718 13.2969H15.0469C15.264 13.0358 15.5046 12.7952 15.7657 12.5781C16.6102 11.7875 17.6632 10.8064 17.8968 8.46688C18.0794 6.6484 17.5324 4.83182 16.3759 3.41659C15.2195 2.00135 13.5483 1.10334 11.7299 0.920007C5.27553 0.244382 0.945059 4.72219 0.12209 12.862C-0.237285 16.5852 0.244278 19.8124 1.55959 22.2058C3.07256 24.9406 5.67084 26.5686 9.07772 26.91C9.9788 27.0058 10.8899 26.922 11.7584 26.6633C12.6269 26.4047 13.4354 25.9764 14.1373 25.4032C14.8391 24.8301 15.4204 24.1234 15.8473 23.3241C16.2742 22.5248 16.5384 21.6488 16.6246 20.7467C16.833 18.7019 16.0819 17.5124 15.4782 16.5384C15.0806 16.0095 14.8145 15.3936 14.7019 14.7416H16.1718C17.9938 14.7416 20.1249 15.7766 20.1249 18.6947V45.2884C20.1249 45.4791 20.2006 45.6619 20.3354 45.7967C20.4702 45.9315 20.653 46.0072 20.8437 46.0072C21.0343 46.0072 21.2171 45.9315 21.3519 45.7967C21.4867 45.6619 21.5624 45.4791 21.5624 45.2884V18.6875C21.5624 14.9644 18.8563 13.2969 16.1718 13.2969ZM15.2051 20.5958C15.0581 22.0352 14.3457 23.3574 13.2244 24.2718C12.1031 25.1862 10.6646 25.6181 9.22506 25.4725C6.2674 25.1742 4.11475 23.8374 2.821 21.5194C1.64584 19.3919 1.20381 16.4558 1.5524 13.0238C1.88662 9.70313 3.42834 2.27126 10.4721 2.27126C12.3157 2.27126 13.9113 2.67016 15.2482 4.30891C15.7042 4.86228 16.0453 5.50107 16.2514 6.18788C16.4575 6.87469 16.5245 7.59573 16.4485 8.30876C16.2688 10.1056 15.5393 10.792 14.7666 11.5108C14.1269 12.1074 13.4046 12.783 13.2788 14.0264C13.1315 15.4855 13.7352 16.4522 14.2707 17.3039C14.8062 18.1556 15.3632 19.0469 15.2051 20.5958Z" fill="white"/>
<path d="M45.8778 12.862C45.0548 4.72219 40.7244 0.247967 34.288 0.898436C32.4696 1.08177 30.7984 1.97978 29.6419 3.39502C28.4855 4.81025 27.9385 6.62683 28.1211 8.44531C28.3547 10.7812 29.4077 11.7731 30.2522 12.5781C30.507 12.796 30.7416 13.0366 30.953 13.2969H30.5469C26.6656 13.2969 24.4375 15.2627 24.4375 18.6875V45.2812C24.4375 45.4719 24.5132 45.6547 24.648 45.7895C24.7828 45.9243 24.9656 46 25.1562 46C25.3469 46 25.5297 45.9243 25.6645 45.7895C25.7993 45.6547 25.875 45.4719 25.875 45.2812V18.6875C25.875 16.0641 27.4455 14.7344 30.5469 14.7344H31.2872C31.1746 15.3864 30.9085 16.0023 30.5109 16.5313C29.9072 17.498 29.1561 18.6875 29.3645 20.7395C29.4511 21.6414 29.7156 22.5172 30.1427 23.3162C30.5698 24.1153 31.151 24.8218 31.8528 25.3949C32.5545 25.968 33.3629 26.3963 34.2312 26.6551C35.0994 26.9139 36.0104 26.9981 36.9114 26.9028C40.3183 26.5434 42.9166 24.9334 44.4295 22.1986C45.7556 19.8123 46.2552 16.5852 45.8778 12.862ZM43.1789 21.487C41.8852 23.823 39.7325 25.1598 36.7748 25.4402C35.3405 25.5852 33.9071 25.1573 32.7869 24.2499C31.6667 23.3424 30.9507 22.029 30.7948 20.5958C30.6367 19.0433 31.1542 18.1952 31.7292 17.2967C32.3042 16.3983 32.8684 15.4783 32.7211 14.0192C32.5953 12.783 31.873 12.1073 31.2333 11.5036C30.4606 10.7848 29.7311 10.102 29.5514 8.30156C29.4069 6.86242 29.8398 5.42479 30.755 4.30476C31.6701 3.18472 32.9926 2.47396 34.4317 2.32875C34.7899 2.29115 35.1497 2.27196 35.5098 2.27125C42.5536 2.27125 44.0953 9.69234 44.4295 13.0058C44.7961 16.4378 44.3541 19.3739 43.1789 21.5014V21.487Z" fill="white"/>
</g>
<defs>
<clipPath id="clip0_1_421">
<rect width="46" height="46" fill="white"/>
</clipPath>
</defs>
</svg>
