<svg width="53" height="54" viewBox="0 0 53 54" fill="none" xmlns="http://www.w3.org/2000/svg">
<path d="M50.1544 51.9455H50.1578C50.6046 51.9455 51.0116 51.6827 51.1955 51.2753C51.3798 50.8668 51.3066 50.3864 51.0091 50.0513L47.9549 46.6115C47.1508 45.6665 45.8073 45.3749 44.6834 45.9024C44.2865 46.0887 43.9356 46.371 43.6685 46.7186L43.4257 47.0347L41.9018 47.307L36.8096 45.872C34.9954 45.3608 33.0723 45.342 31.2479 45.8181L30.8317 45.9267L26.1208 40.9729C25.945 39.4024 25.2347 37.9414 24.1008 36.831L23.3688 36.114C22.871 33.534 23.5761 30.8204 25.2781 28.8103L25.7479 28.2556C26.4859 27.4484 26.9528 26.4136 27.0633 25.3177L27.849 25.4359L27.7813 25.6962C27.5679 26.5165 27.5409 27.3898 27.7033 28.2219C28.0874 30.1892 29.4993 31.8282 31.3882 32.4992L31.8112 32.6494C31.9017 32.6815 31.9953 32.6971 32.0882 32.6971C32.2948 32.6971 32.4977 32.6198 32.6536 32.4742C32.8797 32.263 32.9692 31.9436 32.8858 31.6457L32.4022 29.9186C32.1316 28.9523 32.301 27.9229 32.8669 27.0942C33.612 26.0031 33.674 24.6091 33.0287 23.456L32.8461 23.13C33 22.7256 33.0821 22.2926 33.0821 21.8498C33.0821 20.4863 32.2911 19.2173 31.067 18.617L30.54 18.3585L29.6326 17.8223L28.5524 16.693L29.4058 15.6186C29.8665 15.0385 30.2031 14.3527 30.3805 13.6334L32.0737 8.36468L33.7239 7.1697C33.8802 7.05658 33.992 6.89252 34.0401 6.7057L34.8297 3.6436C34.8862 3.42433 34.8505 3.19152 34.7308 2.99936C34.6112 2.80709 34.4181 2.67223 34.1964 2.62613L30.697 1.89819C30.3224 1.81945 29.9432 2.00888 29.7797 2.35481L28.0813 5.94571L23.6129 13.8718C23.2692 14.4814 23.0301 15.1395 22.9022 15.8276L21.8876 21.2859L18.2143 22.3708C16.523 22.8703 15.4063 24.5081 15.5591 26.265L15.6762 27.6119L15.5699 28.1307C15.0713 30.5653 15.064 33.115 15.5407 35.5572L9.56553 33.5898C8.72114 33.3119 7.79975 33.3365 6.97224 33.6586L6.92716 33.6761C5.09218 34.3905 4.06123 36.3036 4.47584 38.2249C5.09825 41.1089 6.05031 45.5459 6.39375 47.1475L4.46744 48.2059C3.66909 48.6445 3.30911 49.5864 3.61121 50.445L3.61824 50.465C3.88329 51.2182 4.59441 51.723 5.38928 51.723H5.39645C6.20542 51.72 7.51772 51.7192 8.52168 51.719C9.67976 51.7187 10.7512 51.1409 11.3883 50.1726L11.4037 50.149C11.8513 49.4687 12.0495 48.6504 11.9618 47.845C11.8051 46.407 11.5065 43.6594 11.3113 41.863C12.7504 42.7537 14.2445 43.5683 15.7686 44.2926L16.579 44.6776L26.922 50.8708C27.9312 51.4751 29.0864 51.8004 30.2625 51.8116L50.1544 51.9455ZM44.0327 48.6088C44.2358 48.5725 44.4181 48.4617 44.5438 48.2982L44.982 47.7276C45.0886 47.5888 45.2288 47.4761 45.3873 47.4017C45.8373 47.1905 46.3758 47.3083 46.6965 47.6884C46.701 47.6936 46.7055 47.6989 46.7101 47.7041L49.0024 50.2858L42.5853 50.2666L42.6549 48.8549L44.0327 48.6088ZM17.0933 28.995L21.8662 31.9534C21.5605 33.1852 21.4771 34.4722 21.6345 35.7449L17.3176 35.9436C16.7748 33.6803 16.6993 31.2908 17.0933 28.995ZM31.4992 26.1602C30.6697 27.3748 30.4124 28.8791 30.789 30.2983C30.0441 29.7068 29.5155 28.8603 29.3288 27.9045C29.2137 27.3144 29.2328 26.695 29.3841 26.1132L29.5162 25.6054C30.2989 25.5575 31.051 25.2553 31.6546 24.7315L31.7445 24.6534C31.8899 25.1609 31.8067 25.71 31.4992 26.1602ZM29.796 21.9172L30.5474 20.2249C31.0874 20.5809 31.4259 21.1948 31.4259 21.8498C31.4259 22.4136 31.1817 22.949 30.7559 23.3184L30.569 23.4806C30.1387 23.8541 29.5689 24.0196 29.0052 23.9349L27.1994 23.6632L27.2706 22.7808L29.2021 22.3932C29.4655 22.3403 29.687 22.1629 29.796 21.9172ZM29.0902 19.4256L28.4562 20.8536L27.4092 21.0637L27.6451 18.1407L28.5146 19.0496C28.5669 19.1043 28.6265 19.1516 28.6917 19.1902L29.0902 19.4256ZM24.5305 16.1304C24.6251 15.6219 24.8018 15.1357 25.0557 14.6852L29.5387 6.7333C29.5484 6.71612 29.5575 6.69853 29.5659 6.68074L30.9981 3.6525L33.0091 4.07081L32.5109 6.00324L30.8826 7.18234C30.7399 7.28565 30.6338 7.43193 30.5799 7.59974C30.5799 7.59974 28.7825 13.1951 28.7776 13.2155C28.6583 13.713 28.4271 14.1878 28.1088 14.5885L26.2189 16.968C26.1167 17.0966 26.0551 17.2527 26.0419 17.4164L25.423 25.0851C25.3634 25.8242 25.0619 26.5253 24.5784 27.0786C24.5639 27.0933 24.2824 27.3845 24.1576 27.4856C23.5818 27.9524 22.7636 28.017 22.1218 27.6467C21.5647 27.3252 21.2189 26.726 21.2194 26.0826L21.2197 25.6874C21.2199 25.2886 21.355 24.8955 21.6001 24.5806C21.6001 24.5806 23.2694 22.4345 23.2731 22.4295C23.2857 22.4125 24.5305 16.1304 24.5305 16.1304ZM18.6835 23.9592L20.465 23.2568C19.9948 23.8608 19.5639 24.9213 19.5635 25.6863L19.5632 26.0813C19.5621 27.3152 20.2254 28.4647 21.2941 29.0814C21.761 29.3506 22.2762 29.5 22.7964 29.533C22.6552 29.7968 22.5262 30.0666 22.4085 30.3409L17.3007 27.1749L17.2091 26.1214C17.1243 25.1459 17.7444 24.2365 18.6835 23.9592ZM10.0041 49.2631C9.67473 49.7636 9.12041 50.0627 8.52135 50.0628C7.51561 50.063 6.20089 50.0638 5.3903 50.0667H5.38945C5.29492 50.0667 5.21299 50.0074 5.18085 49.916L5.17382 49.896C5.14163 49.8045 5.17999 49.7042 5.26501 49.6575L7.5609 48.3961L10.3231 48.285C10.3113 48.6216 10.208 48.9531 10.0195 49.2395L10.0041 49.2631ZM27.7729 49.4499C27.7729 49.4499 17.3497 43.2101 17.3258 43.1988L16.4795 42.7967C14.6074 41.9069 12.7819 40.8758 11.0536 39.7316L10.7575 39.5357C10.6192 39.4442 10.4599 39.3982 10.3005 39.3982C10.1514 39.3982 10.0022 39.4385 9.86962 39.5191C9.59547 39.6861 9.44257 39.9966 9.47725 40.3158C9.47725 40.3158 9.88493 44.0689 10.1639 46.6339L7.99623 46.7211C7.63925 45.0567 6.70743 40.7141 6.09478 37.8755C5.85282 36.754 6.45557 35.637 7.52722 35.2198L7.57235 35.2023C8.04338 35.0188 8.56738 35.0049 9.0476 35.163C9.0476 35.163 16.5348 37.6183 16.5495 37.6205C16.5596 37.6221 22.2871 37.3728 22.2871 37.3728L22.9419 38.0142C23.8581 38.9115 24.4099 40.1103 24.4956 41.3899C24.5085 41.5828 24.5886 41.7651 24.7218 41.9052L29.9681 47.422C30.1758 47.6404 30.4858 47.7288 30.7774 47.6526L31.6661 47.4207C33.2059 47.0191 34.8292 47.0346 36.3604 47.4662L41.0006 48.7738L40.9275 50.2565L30.2783 50.1554C29.3961 50.147 28.5298 49.9031 27.7729 49.4499Z" fill="white"/>
</svg>
