<svg width="52" height="53" viewBox="0 0 52 53" fill="none" xmlns="http://www.w3.org/2000/svg">
<path d="M51.3906 30.3993H0.609375C0.447759 30.3993 0.292762 30.3351 0.178482 30.2208C0.0642018 30.1066 0 29.9516 0 29.7899C0 29.6283 0.0642018 29.4733 0.178482 29.3591C0.292762 29.2448 0.447759 29.1806 0.609375 29.1806H51.3906C51.5522 29.1806 51.7072 29.2448 51.8215 29.3591C51.9358 29.4733 52 29.6283 52 29.7899C52 29.9516 51.9358 30.1066 51.8215 30.2208C51.7072 30.3351 51.5522 30.3993 51.3906 30.3993Z" fill="white"/>
<path d="M51.3906 36.8993H0.609375C0.447759 36.8993 0.292762 36.8351 0.178482 36.7208C0.0642018 36.6066 0 36.4516 0 36.2899C0 36.1283 0.0642018 35.9733 0.178482 35.8591C0.292762 35.7448 0.447759 35.6806 0.609375 35.6806H51.3906C51.5522 35.6806 51.7072 35.7448 51.8215 35.8591C51.9358 35.9733 52 36.1283 52 36.2899C52 36.4516 51.9358 36.6066 51.8215 36.7208C51.7072 36.8351 51.5522 36.8993 51.3906 36.8993Z" fill="white"/>
<path d="M6.49024 45.5463C6.00814 45.5463 5.53688 45.4034 5.13603 45.1356C4.73519 44.8677 4.42277 44.487 4.23828 44.0416C4.05379 43.5962 4.00552 43.1061 4.09957 42.6333C4.19362 42.1605 4.42577 41.7262 4.76666 41.3853C5.10755 41.0444 5.54187 40.8122 6.0147 40.7182C6.48753 40.6241 6.97763 40.6724 7.42303 40.8569C7.86842 41.0414 8.24911 41.3538 8.51694 41.7546C8.78478 42.1555 8.92774 42.6267 8.92774 43.1088C8.92714 43.7551 8.67015 44.3748 8.21315 44.8318C7.75616 45.2888 7.13652 45.5458 6.49024 45.5463ZM6.49024 41.8913C6.24919 41.8913 6.01356 41.9628 5.81313 42.0967C5.61271 42.2306 5.4565 42.421 5.36426 42.6437C5.27201 42.8664 5.24788 43.1114 5.2949 43.3478C5.34193 43.5842 5.458 43.8014 5.62845 43.9718C5.79889 44.1423 6.01605 44.2584 6.25247 44.3054C6.48888 44.3524 6.73393 44.3283 6.95663 44.236C7.17933 44.1438 7.36967 43.9876 7.50359 43.7872C7.63751 43.5867 7.70899 43.3511 7.70899 43.1101C7.70899 42.7868 7.58058 42.4768 7.35202 42.2483C7.12346 42.0197 6.81347 41.8913 6.49024 41.8913Z" fill="white"/>
<path d="M13 51.7268C12.5179 51.7268 12.0466 51.5839 11.6458 51.316C11.245 51.0482 10.9325 50.6675 10.748 50.2221C10.5636 49.7767 10.5153 49.2866 10.6093 48.8138C10.7034 48.341 10.9355 47.9066 11.2764 47.5658C11.6173 47.2249 12.0516 46.9927 12.5245 46.8987C12.9973 46.8046 13.4874 46.8529 13.9328 47.0374C14.3782 47.2219 14.7589 47.5343 15.0267 47.9351C15.2945 48.336 15.4375 48.8072 15.4375 49.2893C15.4369 49.9356 15.1799 50.5553 14.7229 51.0123C14.2659 51.4692 13.6463 51.7262 13 51.7268ZM13 48.0706C12.759 48.0706 12.5233 48.1421 12.3229 48.276C12.1225 48.4099 11.9663 48.6002 11.874 48.8229C11.7818 49.0456 11.7576 49.2907 11.8047 49.5271C11.8517 49.7635 11.9678 49.9807 12.1382 50.1511C12.3087 50.3216 12.5258 50.4376 12.7622 50.4847C12.9986 50.5317 13.2437 50.5076 13.4664 50.4153C13.6891 50.3231 13.8794 50.1669 14.0134 49.9664C14.1473 49.766 14.2188 49.5304 14.2188 49.2893C14.2185 48.9663 14.09 48.6565 13.8614 48.4282C13.6329 48.1999 13.3231 48.0716 13 48.0716V48.0706Z" fill="white"/>
<path d="M26 51.7268C25.5179 51.7268 25.0466 51.5839 24.6458 51.316C24.245 51.0482 23.9325 50.6675 23.748 50.2221C23.5636 49.7767 23.5153 49.2866 23.6093 48.8138C23.7034 48.341 23.9355 47.9066 24.2764 47.5658C24.6173 47.2249 25.0516 46.9927 25.5245 46.8987C25.9973 46.8046 26.4874 46.8529 26.9328 47.0374C27.3782 47.2219 27.7589 47.5343 28.0267 47.9351C28.2945 48.336 28.4375 48.8072 28.4375 49.2893C28.4369 49.9356 28.1799 50.5553 27.7229 51.0123C27.2659 51.4692 26.6463 51.7262 26 51.7268ZM26 48.0706C25.759 48.0706 25.5233 48.1421 25.3229 48.276C25.1225 48.4099 24.9663 48.6002 24.874 48.8229C24.7818 49.0456 24.7576 49.2907 24.8047 49.5271C24.8517 49.7635 24.9678 49.9807 25.1382 50.1511C25.3087 50.3216 25.5258 50.4376 25.7622 50.4847C25.9987 50.5317 26.2437 50.5076 26.4664 50.4153C26.6891 50.3231 26.8794 50.1669 27.0134 49.9664C27.1473 49.766 27.2188 49.5304 27.2188 49.2893C27.2185 48.9663 27.09 48.6565 26.8614 48.4282C26.6329 48.1999 26.3231 48.0716 26 48.0716V48.0706Z" fill="white"/>
<path d="M39 51.7268C38.5179 51.7268 38.0466 51.5839 37.6458 51.316C37.245 51.0482 36.9325 50.6675 36.748 50.2221C36.5636 49.7767 36.5153 49.2866 36.6093 48.8138C36.7034 48.341 36.9355 47.9066 37.2764 47.5658C37.6173 47.2249 38.0516 46.9927 38.5245 46.8987C38.9973 46.8046 39.4874 46.8529 39.9328 47.0374C40.3782 47.2219 40.7589 47.5343 41.0267 47.9351C41.2945 48.336 41.4375 48.8072 41.4375 49.2893C41.4369 49.9356 41.1799 50.5553 40.7229 51.0123C40.2659 51.4692 39.6463 51.7262 39 51.7268ZM39 48.0706C38.759 48.0706 38.5233 48.1421 38.3229 48.276C38.1225 48.4099 37.9663 48.6002 37.874 48.8229C37.7818 49.0456 37.7576 49.2907 37.8047 49.5271C37.8517 49.7635 37.9678 49.9807 38.1382 50.1511C38.3087 50.3216 38.5258 50.4376 38.7622 50.4847C38.9986 50.5317 39.2437 50.5076 39.4664 50.4153C39.6891 50.3231 39.8794 50.1669 40.0134 49.9664C40.1473 49.766 40.2188 49.5304 40.2188 49.2893C40.2185 48.9663 40.09 48.6565 39.8614 48.4282C39.6329 48.1999 39.3231 48.0716 39 48.0716V48.0706Z" fill="white"/>
<path d="M19.5 45.5463C19.0179 45.5463 18.5466 45.4034 18.1458 45.1356C17.745 44.8677 17.4325 44.487 17.248 44.0416C17.0636 43.5962 17.0153 43.1061 17.1093 42.6333C17.2034 42.1605 17.4355 41.7262 17.7764 41.3853C18.1173 41.0444 18.5516 40.8122 19.0245 40.7182C19.4973 40.6241 19.9874 40.6724 20.4328 40.8569C20.8782 41.0414 21.2589 41.3538 21.5267 41.7546C21.7945 42.1555 21.9375 42.6267 21.9375 43.1088C21.9369 43.7551 21.6799 44.3748 21.2229 44.8318C20.7659 45.2888 20.1463 45.5458 19.5 45.5463ZM19.5 41.8913C19.259 41.8913 19.0233 41.9628 18.8229 42.0967C18.6225 42.2306 18.4663 42.421 18.374 42.6437C18.2818 42.8664 18.2576 43.1114 18.3047 43.3478C18.3517 43.5842 18.4678 43.8014 18.6382 43.9718C18.8087 44.1423 19.0258 44.2584 19.2622 44.3054C19.4987 44.3524 19.7437 44.3283 19.9664 44.236C20.1891 44.1438 20.3794 43.9876 20.5134 43.7872C20.6473 43.5867 20.7188 43.3511 20.7188 43.1101C20.7188 42.7868 20.5903 42.4768 20.3618 42.2483C20.1332 42.0197 19.8232 41.8913 19.5 41.8913Z" fill="white"/>
<path d="M32.5098 45.5463C32.0277 45.5463 31.5564 45.4034 31.1556 45.1356C30.7547 44.8677 30.4423 44.487 30.2578 44.0416C30.0733 43.5962 30.0251 43.1061 30.1191 42.6333C30.2132 42.1605 30.4453 41.7262 30.7862 41.3853C31.1271 41.0444 31.5614 40.8122 32.0342 40.7182C32.5071 40.6241 32.9972 40.6724 33.4426 40.8569C33.888 41.0414 34.2686 41.3538 34.5365 41.7546C34.8043 42.1555 34.9473 42.6267 34.9473 43.1088C34.9467 43.7551 34.6897 44.3748 34.2327 44.8318C33.7757 45.2888 33.1561 45.5458 32.5098 45.5463ZM32.5098 41.8913C32.2687 41.8913 32.0331 41.9628 31.8327 42.0967C31.6322 42.2306 31.476 42.421 31.3838 42.6437C31.2915 42.8664 31.2674 43.1114 31.3144 43.3478C31.3615 43.5842 31.4775 43.8014 31.648 43.9718C31.8184 44.1423 32.0356 44.2584 32.272 44.3054C32.5084 44.3524 32.7535 44.3283 32.9762 44.236C33.1989 44.1438 33.3892 43.9876 33.5231 43.7872C33.657 43.5867 33.7285 43.3511 33.7285 43.1101C33.7285 42.7868 33.6001 42.4768 33.3716 42.2483C33.143 42.0197 32.833 41.8913 32.5098 41.8913Z" fill="white"/>
<path d="M45.5203 45.5463C45.0382 45.5463 44.5669 45.4034 44.1661 45.1356C43.7652 44.8677 43.4528 44.487 43.2683 44.0416C43.0838 43.5962 43.0355 43.1061 43.1296 42.6333C43.2237 42.1605 43.4558 41.7262 43.7967 41.3853C44.1376 41.0444 44.5719 40.8122 45.0447 40.7182C45.5176 40.6241 46.0077 40.6724 46.4531 40.8569C46.8984 41.0414 47.2791 41.3538 47.547 41.7546C47.8148 42.1555 47.9578 42.6267 47.9578 43.1088C47.9572 43.7551 47.7002 44.3748 47.2432 44.8318C46.7862 45.2888 46.1665 45.5458 45.5203 45.5463ZM45.5203 41.8913C45.2792 41.8913 45.0436 41.9628 44.8432 42.0967C44.6427 42.2306 44.4865 42.421 44.3943 42.6437C44.302 42.8664 44.2779 43.1114 44.3249 43.3478C44.372 43.5842 44.488 43.8014 44.6585 43.9718C44.8289 44.1423 45.0461 44.2584 45.2825 44.3054C45.5189 44.3524 45.764 44.3283 45.9867 44.236C46.2094 44.1438 46.3997 43.9876 46.5336 43.7872C46.6675 43.5867 46.739 43.3511 46.739 43.1101C46.739 42.7868 46.6106 42.4768 46.382 42.2483C46.1535 42.0197 45.8435 41.8913 45.5203 41.8913Z" fill="white"/>
<path d="M10.0161 25.7545C9.88276 25.7545 9.75306 25.7109 9.64692 25.6301C9.54077 25.5494 9.46403 25.4361 9.42847 25.3076L9.42644 25.3003C9.42441 25.2946 9.42258 25.2879 9.42034 25.28C9.34722 25.047 8.77258 23.3541 7.29972 22.5516C6.35702 22.0379 5.21139 21.9828 3.89474 22.3846C3.81772 22.4099 3.73643 22.4196 3.65563 22.4131C3.57483 22.4066 3.49614 22.384 3.42417 22.3467C3.3522 22.3094 3.2884 22.2581 3.23649 22.1958C3.18459 22.1335 3.14564 22.0616 3.12191 21.984C3.09818 21.9065 3.09015 21.8251 3.0983 21.7444C3.10645 21.6638 3.13061 21.5855 3.16936 21.5143C3.20811 21.4431 3.26068 21.3804 3.32399 21.3298C3.3873 21.2791 3.46007 21.2416 3.53805 21.2195C4.8547 20.8165 5.77242 20.1287 6.26602 19.1752C7.09152 17.5811 6.49331 15.7176 6.48722 15.699C6.46276 15.622 6.45383 15.541 6.46093 15.4606C6.46803 15.3803 6.49103 15.3021 6.5286 15.2306C6.56616 15.1592 6.61755 15.096 6.67976 15.0445C6.74197 14.9931 6.81377 14.9546 6.891 14.9312C6.96823 14.9077 7.04934 14.8999 7.12964 14.908C7.20993 14.9162 7.28779 14.9402 7.35872 14.9788C7.42964 15.0173 7.49221 15.0695 7.54279 15.1324C7.59337 15.1953 7.63096 15.2676 7.65336 15.3451C7.65824 15.3626 8.20566 17.2415 9.78211 18.1005C10.7246 18.6136 11.8702 18.6692 13.1867 18.2671C13.2636 18.242 13.3448 18.2325 13.4255 18.2392C13.5061 18.2458 13.5847 18.2684 13.6565 18.3058C13.7283 18.3431 13.7919 18.3943 13.8437 18.4565C13.8955 18.5187 13.9344 18.5906 13.9581 18.668C13.9818 18.7454 13.9898 18.8267 13.9818 18.9072C13.9737 18.9878 13.9497 19.0659 13.9111 19.137C13.8725 19.2082 13.8201 19.2709 13.757 19.3216C13.6939 19.3723 13.6214 19.4099 13.5436 19.4322C12.2269 19.8354 11.3092 20.5232 10.8156 21.4766C10.0383 22.9779 10.5235 24.7181 10.5879 24.9314L10.5903 24.9395L10.5946 24.9529C10.625 25.0445 10.6333 25.142 10.6187 25.2375C10.604 25.3329 10.5669 25.4234 10.5104 25.5017C10.454 25.58 10.3797 25.6437 10.2937 25.6876C10.2078 25.7316 10.1126 25.7545 10.0161 25.7545ZM6.42344 20.9749C6.93886 21.0634 7.43594 21.2372 7.89427 21.489C8.39182 21.7651 8.83994 22.1221 9.22027 22.5453C9.29847 21.9816 9.4701 21.435 9.72808 20.9278C9.96699 20.4625 10.2816 20.0402 10.659 19.6782C10.1433 19.5896 9.64598 19.4157 9.18736 19.1639C8.68962 18.8879 8.24134 18.5309 7.86095 18.1076C7.78271 18.6713 7.61109 19.218 7.35314 19.7253C7.11451 20.1904 6.80034 20.6127 6.42344 20.9749Z" fill="white"/>
<path d="M36.9384 25.9086C36.8494 25.9087 36.7614 25.8893 36.6807 25.8517C36.5999 25.8141 36.5284 25.7593 36.4712 25.6911C36.4139 25.6229 36.3723 25.543 36.3493 25.4569C36.3262 25.3709 36.3223 25.2809 36.3378 25.1932C36.3394 25.1831 36.5409 23.9253 35.8637 22.9916C35.4611 22.437 34.8087 22.0889 33.9247 21.9568C33.7804 21.9353 33.6486 21.8627 33.5533 21.7523C33.458 21.6418 33.4055 21.5009 33.4053 21.355C33.4053 21.3246 33.4075 21.2942 33.412 21.2642C33.4238 21.185 33.4511 21.109 33.4923 21.0403C33.5335 20.9717 33.5879 20.9119 33.6522 20.8643C33.7165 20.8167 33.7896 20.7822 33.8673 20.7629C33.945 20.7435 34.0257 20.7396 34.1048 20.7515C34.9925 20.8835 35.7207 20.7399 36.2685 20.3231C37.1801 19.6294 37.3567 18.3731 37.3581 18.3615C37.3699 18.2824 37.3972 18.2063 37.4385 18.1377C37.4797 18.0691 37.5341 18.0093 37.5984 17.9617C37.6628 17.9141 37.7358 17.8797 37.8135 17.8603C37.8912 17.841 37.9719 17.8371 38.051 17.8489C38.1302 17.8608 38.2063 17.8881 38.2749 17.9293C38.3435 17.9706 38.4033 18.0249 38.4509 18.0893C38.4985 18.1536 38.5329 18.2267 38.5523 18.3044C38.5716 18.382 38.5755 18.4627 38.5636 18.5419C38.5618 18.5518 38.3605 19.8094 39.0377 20.7432C39.4401 21.2977 40.0926 21.6458 40.9766 21.7779C41.1209 21.7994 41.2527 21.8719 41.348 21.9824C41.4434 22.0928 41.4959 22.2338 41.4961 22.3797C41.4962 22.4101 41.4938 22.4405 41.4892 22.4705C41.4654 22.6304 41.379 22.7742 41.2491 22.8703C41.1192 22.9665 40.9564 23.0071 40.7966 22.9832C39.9087 22.8506 39.1805 22.9948 38.6327 23.4116C37.7213 24.1053 37.5448 25.3616 37.5433 25.3732C37.5253 25.5209 37.4538 25.6569 37.3424 25.7556C37.2309 25.8542 37.0872 25.9086 36.9384 25.9086ZM36.3221 21.6987C36.523 21.8737 36.7028 22.0713 36.8582 22.2877C37.0271 22.5233 37.1668 22.7785 37.2744 23.0476C37.4561 22.8217 37.6644 22.6185 37.8947 22.4425C38.1063 22.2809 38.3361 22.1446 38.5793 22.0363C38.3785 21.8613 38.1986 21.6636 38.0432 21.4472C37.8743 21.2116 37.7345 20.9565 37.6268 20.6873C37.4452 20.9133 37.237 21.1164 37.0067 21.2924C36.795 21.4539 36.5653 21.5902 36.3221 21.6987Z" fill="white"/>
<path d="M25.6546 12.0917C25.5695 12.0918 25.4853 12.074 25.4075 12.0396C25.3296 12.0052 25.2599 11.9548 25.2027 11.8918C25.1455 11.8287 25.1021 11.7544 25.0754 11.6736C25.0487 11.5928 25.0392 11.5073 25.0475 11.4226V11.4169C25.0475 11.4104 25.0475 11.4033 25.0491 11.3966C25.0642 11.1624 25.1334 9.45815 24.0993 8.2392C23.4375 7.45899 22.4373 7.01577 21.1266 6.92213C20.973 6.91115 20.8292 6.8424 20.7242 6.72973C20.6192 6.61705 20.5608 6.4688 20.5607 6.31479C20.5607 6.30016 20.5607 6.28554 20.5621 6.27071C20.5674 6.19076 20.5885 6.11266 20.6242 6.04092C20.6599 5.96918 20.7095 5.90523 20.77 5.85276C20.8306 5.80029 20.9009 5.76034 20.977 5.73522C21.0531 5.71011 21.1334 5.70032 21.2133 5.70643C22.5247 5.80068 23.5775 5.5033 24.3439 4.82588C25.5496 3.75887 25.7174 2.04571 25.7339 1.82979V1.81882V1.80744C25.7456 1.64623 25.8209 1.49629 25.9432 1.3906C26.0038 1.33827 26.074 1.29837 26.15 1.2732C26.226 1.24802 26.3062 1.23806 26.386 1.24387C26.4658 1.24969 26.5437 1.27117 26.6152 1.30709C26.6868 1.34301 26.7505 1.39267 26.8028 1.45322C26.8552 1.51378 26.8951 1.58405 26.9202 1.66002C26.9454 1.736 26.9554 1.81618 26.9496 1.89601V1.9017C26.9496 1.9082 26.9496 1.9153 26.9479 1.92302C26.9329 2.15743 26.8636 3.86144 27.8977 5.0804C28.5595 5.8606 29.5597 6.30382 30.8705 6.39766C31.0241 6.40865 31.1678 6.47736 31.2728 6.59C31.3778 6.70263 31.4362 6.85083 31.4364 7.0048C31.4364 7.01943 31.4364 7.03405 31.435 7.04888C31.4295 7.12877 31.4082 7.20677 31.3725 7.27842C31.3367 7.35007 31.2872 7.41395 31.2266 7.46638C31.1661 7.51882 31.0959 7.55878 31.0198 7.58397C30.9438 7.60916 30.8636 7.61908 30.7837 7.61316C29.4724 7.51973 28.4196 7.81629 27.6532 8.49371C26.4474 9.56073 26.2797 11.2739 26.2632 11.4898V11.5008V11.5121C26.2551 11.6683 26.1876 11.8153 26.0744 11.9231C25.9612 12.0309 25.811 12.0912 25.6546 12.0917ZM23.934 6.51101C24.3505 6.76594 24.7232 7.08639 25.0377 7.46001C25.3786 7.86782 25.651 8.32818 25.8446 8.82318C26.1067 8.36082 26.442 7.94396 26.8374 7.58879C27.202 7.26385 27.6166 6.99972 28.0651 6.80655C27.6486 6.55162 27.2759 6.23117 26.9613 5.85755C26.6205 5.44974 26.348 4.98938 26.1545 4.49438C25.8924 4.95674 25.5571 5.3736 25.1617 5.72877C24.7972 6.05368 24.3828 6.3178 23.9344 6.51101H23.934Z" fill="white"/>
<path d="M10.3078 9.22902H9.07544C8.91382 9.22902 8.75883 9.16482 8.64455 9.05054C8.53027 8.93626 8.46606 8.78126 8.46606 8.61964C8.46606 8.45803 8.53027 8.30303 8.64455 8.18875C8.75883 8.07447 8.91382 8.01027 9.07544 8.01027H10.3078C10.4694 8.01027 10.6244 8.07447 10.7387 8.18875C10.853 8.30303 10.9172 8.45803 10.9172 8.61964C10.9172 8.78126 10.853 8.93626 10.7387 9.05054C10.6244 9.16482 10.4694 9.22902 10.3078 9.22902Z" fill="white"/>
<path d="M11.5579 11.7092C11.3962 11.7092 11.2412 11.645 11.127 11.5307C11.0127 11.4164 10.9485 11.2614 10.9485 11.0998V9.86806C10.9485 9.70644 11.0127 9.55144 11.127 9.43716C11.2412 9.32288 11.3962 9.25868 11.5579 9.25868C11.7195 9.25868 11.8745 9.32288 11.9888 9.43716C12.103 9.55144 12.1672 9.70644 12.1672 9.86806V11.0998C12.1672 11.2614 12.103 11.4164 11.9888 11.5307C11.8745 11.645 11.7195 11.7092 11.5579 11.7092Z" fill="white"/>
<path d="M14.0378 9.22841H12.8054C12.6438 9.22841 12.4888 9.16421 12.3745 9.04993C12.2602 8.93565 12.196 8.78065 12.196 8.61903C12.196 8.45742 12.2602 8.30242 12.3745 8.18814C12.4888 8.07386 12.6438 8.00966 12.8054 8.00966H14.0378C14.1994 8.00966 14.3544 8.07386 14.4687 8.18814C14.583 8.30242 14.6472 8.45742 14.6472 8.61903C14.6472 8.78065 14.583 8.93565 14.4687 9.04993C14.3544 9.16421 14.1994 9.22841 14.0378 9.22841Z" fill="white"/>
<path d="M11.5564 7.97981C11.3948 7.97981 11.2398 7.9156 11.1255 7.80132C11.0112 7.68704 10.947 7.53205 10.947 7.37043V6.13828C10.947 5.97666 11.0112 5.82166 11.1255 5.70738C11.2398 5.5931 11.3948 5.5289 11.5564 5.5289C11.718 5.5289 11.873 5.5931 11.9873 5.70738C12.1016 5.82166 12.1658 5.97666 12.1658 6.13828V7.37043C12.1658 7.53205 12.1016 7.68704 11.9873 7.80132C11.873 7.9156 11.718 7.97981 11.5564 7.97981Z" fill="white"/>
<path d="M43.7547 13.4079H42.5697C42.4081 13.4079 42.2531 13.3437 42.1388 13.2294C42.0245 13.1152 41.9603 12.9602 41.9603 12.7985C41.9603 12.6369 42.0245 12.4819 42.1388 12.3676C42.2531 12.2534 42.4081 12.1892 42.5697 12.1892H43.7547C43.9163 12.1892 44.0713 12.2534 44.1856 12.3676C44.2999 12.4819 44.3641 12.6369 44.3641 12.7985C44.3641 12.9602 44.2999 13.1152 44.1856 13.2294C44.0713 13.3437 43.9163 13.4079 43.7547 13.4079Z" fill="white"/>
<path d="M44.9558 15.7936C44.7942 15.7936 44.6392 15.7294 44.5249 15.6151C44.4106 15.5009 44.3464 15.3459 44.3464 15.1842V13.999C44.3464 13.8374 44.4106 13.6824 44.5249 13.5681C44.6392 13.4538 44.7942 13.3896 44.9558 13.3896C45.1174 13.3896 45.2724 13.4538 45.3867 13.5681C45.501 13.6824 45.5652 13.8374 45.5652 13.999V15.1842C45.5652 15.3459 45.501 15.5009 45.3867 15.6151C45.2724 15.7294 45.1174 15.7936 44.9558 15.7936Z" fill="white"/>
<path d="M47.3415 13.4073H46.1562C45.9946 13.4073 45.8396 13.3431 45.7254 13.2288C45.6111 13.1145 45.5469 12.9595 45.5469 12.7979C45.5469 12.6363 45.6111 12.4813 45.7254 12.367C45.8396 12.2528 45.9946 12.1886 46.1562 12.1886H47.3415C47.5031 12.1886 47.6581 12.2528 47.7724 12.367C47.8867 12.4813 47.9509 12.6363 47.9509 12.7979C47.9509 12.9595 47.8867 13.1145 47.7724 13.2288C47.6581 13.3431 47.5031 13.4073 47.3415 13.4073Z" fill="white"/>
<path d="M44.9552 12.2068C44.7936 12.2068 44.6386 12.1426 44.5243 12.0284C44.41 11.9141 44.3458 11.7591 44.3458 11.5975V10.4124C44.3458 10.2508 44.41 10.0958 44.5243 9.98154C44.6386 9.86726 44.7936 9.80305 44.9552 9.80305C45.1168 9.80305 45.2718 9.86726 45.3861 9.98154C45.5004 10.0958 45.5646 10.2508 45.5646 10.4124V11.5975C45.5646 11.7591 45.5004 11.9141 45.3861 12.0284C45.2718 12.1426 45.1168 12.2068 44.9552 12.2068Z" fill="white"/>
</svg>
