<svg width="49" height="49" viewBox="0 0 49 49" fill="none" xmlns="http://www.w3.org/2000/svg">
<g clip-path="url(#clip0_1_449)">
<path d="M37.548 25.2923C37.3698 24.9382 36.9384 24.7956 36.5842 24.9737C36.2301 25.1518 36.0874 25.5834 36.2656 25.9375C37.8449 29.0766 38.6458 31.5936 38.6458 33.4185C38.6457 41.2187 32.2999 47.5645 24.4998 47.5645C16.6997 47.5645 10.1762 40.8652 10.3539 33.4186C10.4838 27.9777 18.0085 16.6637 22.8002 11.131C23.9333 10.0951 25.0664 10.0951 26.1996 11.1311C28.4126 13.687 31.9912 18.3882 34.7937 23.2261C34.9924 23.5691 35.4316 23.6861 35.7746 23.4874C36.1176 23.2887 36.2346 22.8495 36.0358 22.5065C33.1831 17.5818 29.5387 12.7946 27.2849 10.1914C25.8364 8.51806 23.1636 8.51777 21.7149 10.1913C18.3952 14.0245 8.91846 26.5196 8.91846 33.4185C8.91836 42.0102 15.9081 49 24.4998 49C33.0914 49 40.0812 42.0102 40.0812 33.4186C40.0812 31.3676 39.2289 28.6335 37.548 25.2923Z" fill="white"/>
<path d="M14.095 13.029C16.5963 13.029 18.7379 11.2463 19.1872 8.79022C19.2586 8.40023 19.0003 8.02632 18.6103 7.95502C18.2204 7.88382 17.8464 8.14193 17.7751 8.53192C17.4506 10.3059 15.903 11.5935 14.095 11.5935C12.0323 11.5935 10.354 9.91521 10.354 7.85243C10.354 6.42789 12.4512 3.24471 13.9646 1.49516C14.0513 1.41591 14.1381 1.41572 14.225 1.49458C15.1329 2.54425 16.456 4.37486 17.2154 5.91348C17.3909 6.26892 17.8212 6.41478 18.1768 6.23945C18.5322 6.06402 18.6782 5.63355 18.5027 5.27811C17.566 3.38013 16.0556 1.41649 15.3103 0.554778C14.5 -0.185199 13.6896 -0.185007 12.8795 0.555352C11.7777 1.82897 8.91846 5.62274 8.91846 7.85243C8.91846 10.7068 11.2407 13.029 14.095 13.029Z" fill="white"/>
<path d="M23.0404 38.6459C22.644 38.6459 22.3226 38.9672 22.3226 39.3636C22.3226 39.76 22.644 40.0814 23.0404 40.0814L33.4182 40.0815C33.8146 40.0815 34.1359 39.7601 34.1359 39.3637V30.4454C34.1359 30.049 33.8146 29.7277 33.4182 29.7277H29.6768V21.533C29.6768 21.1366 29.3555 20.8152 28.9591 20.8152H20.0408C19.6444 20.8152 19.323 21.1366 19.323 21.533V29.7273H15.5813C15.1849 29.7273 14.8635 30.0487 14.8635 30.4451V39.3636C14.8635 39.76 15.1849 40.0814 15.5813 40.0814H19.9119C20.3083 40.0814 20.6296 39.76 20.6296 39.3636C20.6296 38.9672 20.3083 38.6459 19.9119 38.6459H16.2991V31.1628L23.7821 31.169V38.6459H23.0404ZM20.7586 22.2509H28.2413V29.7278L20.7586 29.7274V22.2509ZM32.7004 31.1633V38.646H25.2176V31.1691L32.7004 31.1633Z" fill="white"/>
<path d="M18.5544 34.1345C18.9499 34.1345 19.2706 33.8138 19.2706 33.4183C19.2706 33.0227 18.9499 32.702 18.5544 32.702C18.1588 32.702 17.8381 33.0227 17.8381 33.4183C17.8381 33.8138 18.1588 34.1345 18.5544 34.1345Z" fill="white"/>
<path d="M18.5544 37.1073C18.9499 37.1073 19.2706 36.7866 19.2706 36.391C19.2706 35.9954 18.9499 35.6748 18.5544 35.6748C18.1588 35.6748 17.8381 35.9954 17.8381 36.391C17.8381 36.7866 18.1588 37.1073 18.5544 37.1073Z" fill="white"/>
<path d="M21.527 34.1345C21.9226 34.1345 22.2433 33.8138 22.2433 33.4183C22.2433 33.0227 21.9226 32.702 21.527 32.702C21.1315 32.702 20.8108 33.0227 20.8108 33.4183C20.8108 33.8138 21.1315 34.1345 21.527 34.1345Z" fill="white"/>
<path d="M27.4726 34.1345C27.8682 34.1345 28.1888 33.8138 28.1888 33.4183C28.1888 33.0227 27.8682 32.702 27.4726 32.702C27.077 32.702 26.7563 33.0227 26.7563 33.4183C26.7563 33.8138 27.077 34.1345 27.4726 34.1345Z" fill="white"/>
<path d="M27.4726 37.1073C27.8682 37.1073 28.1888 36.7866 28.1888 36.391C28.1888 35.9954 27.8682 35.6748 27.4726 35.6748C27.077 35.6748 26.7563 35.9954 26.7563 36.391C26.7563 36.7866 27.077 37.1073 27.4726 37.1073Z" fill="white"/>
<path d="M30.4455 34.1345C30.8411 34.1345 31.1617 33.8138 31.1617 33.4183C31.1617 33.0227 30.8411 32.702 30.4455 32.702C30.0499 32.702 29.7292 33.0227 29.7292 33.4183C29.7292 33.8138 30.0499 34.1345 30.4455 34.1345Z" fill="white"/>
<path d="M23.0136 25.2143C23.4092 25.2143 23.7298 24.8936 23.7298 24.4981C23.7298 24.1025 23.4092 23.7818 23.0136 23.7818C22.618 23.7818 22.2974 24.1025 22.2974 24.4981C22.2974 24.8936 22.618 25.2143 23.0136 25.2143Z" fill="white"/>
<path d="M23.0136 28.187C23.4092 28.187 23.7298 27.8664 23.7298 27.4708C23.7298 27.0752 23.4092 26.7545 23.0136 26.7545C22.618 26.7545 22.2974 27.0752 22.2974 27.4708C22.2974 27.8664 22.618 28.187 23.0136 28.187Z" fill="white"/>
<path d="M25.9863 25.2143C26.3818 25.2143 26.7025 24.8936 26.7025 24.4981C26.7025 24.1025 26.3818 23.7818 25.9863 23.7818C25.5907 23.7818 25.27 24.1025 25.27 24.4981C25.27 24.8936 25.5907 25.2143 25.9863 25.2143Z" fill="white"/>
</g>
<defs>
<clipPath id="clip0_1_449">
<rect width="49" height="49" fill="white"/>
</clipPath>
</defs>
</svg>
