<svg width="43" height="44" viewBox="0 0 43 44" fill="none" xmlns="http://www.w3.org/2000/svg">
<g clip-path="url(#clip0_1_227)">
<path d="M42.8155 42.3511L38.5729 38.1086C38.7855 37.3332 39.0073 36.5573 39.2232 35.8038C40.5285 31.2485 41.8783 26.5381 41.5147 20.4212C41.4941 20.074 41.1957 19.8097 40.8485 19.8298C40.5012 19.8505 40.2365 20.1487 40.2572 20.496C40.608 26.3981 39.347 30.7983 38.0122 35.4568C37.8592 35.9906 37.7032 36.5358 37.5493 37.0849L34.927 34.4627C35.0903 33.7389 35.2622 33.0151 35.4298 32.312C36.4477 28.0405 37.5002 23.6236 36.8525 17.7835C36.8142 17.4378 36.5024 17.1881 36.1571 17.227C35.8114 17.2653 35.5621 17.5767 35.6005 17.9224C36.224 23.5448 35.243 27.6615 34.2043 32.0201C34.0956 32.4765 33.9848 32.9421 33.8755 33.4113L31.1257 30.6614C31.2777 29.9494 31.4382 29.2374 31.5947 28.5458C32.5461 24.3399 33.5299 19.9909 32.8167 14.2149C32.7741 13.8695 32.4585 13.6241 32.1145 13.667C31.7692 13.7095 31.5239 14.024 31.5666 14.3692C32.2529 19.9271 31.3363 23.9786 30.366 28.2678C30.267 28.7058 30.1662 29.1523 30.0667 29.6023L27.3133 26.849C27.4202 26.1842 27.5351 25.5199 27.6473 24.8745C27.8932 23.459 28.1475 21.9953 28.3205 20.4814C28.36 20.1358 28.1119 19.8236 27.7662 19.7841C27.4218 19.7453 27.1082 19.9927 27.0689 20.3384C26.9 21.8159 26.6489 23.2612 26.406 24.6588C26.3436 25.0185 26.2802 25.3845 26.2175 25.7532L23.7776 23.3133C23.8117 22.6778 23.8519 22.0417 23.8915 21.424C24.1323 17.6587 24.3814 13.7653 23.2263 8.68055C23.1493 8.34133 22.8118 8.12894 22.4726 8.20587C22.1333 8.28288 21.9208 8.62041 21.9979 8.95963C23.1125 13.8667 22.8802 17.4985 22.6342 21.3435C22.6178 21.5998 22.6012 21.8593 22.585 22.1207L20.2243 19.76C20.1745 19.1662 20.1292 18.571 20.0854 17.9931C19.8193 14.4805 19.5442 10.8483 18.1359 6.25852C18.0338 5.92594 17.6818 5.73891 17.3489 5.84112C17.0163 5.94316 16.8295 6.29547 16.9315 6.62805C18.2985 11.0835 18.5564 14.486 18.8292 18.0882C18.8367 18.1871 18.8444 18.2879 18.852 18.3877L15.9935 15.5292C15.9026 14.9559 15.8151 14.3808 15.7304 13.8227C15.2161 10.433 14.6842 6.92796 13.1521 2.5795C13.0365 2.25137 12.6769 2.07912 12.3487 2.19468C12.0206 2.31025 11.8484 2.66995 11.9639 2.99808C13.4565 7.23442 13.9561 10.5264 14.485 14.0117C14.4855 14.0152 14.4861 14.0188 14.4866 14.0222L12.4039 11.9396C12.2143 11.4973 12.0261 11.0565 11.8386 10.6166C10.5514 7.5969 9.22049 4.47452 7.30019 0.860677C7.13709 0.55363 6.7558 0.436892 6.44842 0.600073C6.14129 0.763339 6.02455 1.14471 6.18773 1.45193C7.75538 4.40196 8.92932 7.03076 10.011 9.54668L1.74092 1.27657C1.49485 1.03058 1.09609 1.03058 0.850102 1.27657C0.604112 1.52256 0.604112 1.9214 0.850102 2.16731L9.37023 10.6874C6.74799 9.56389 4.01262 8.35444 0.925604 6.71397C0.618473 6.55079 0.237016 6.66753 0.0737508 6.97466C-0.0894308 7.28187 0.0272235 7.66324 0.334438 7.82651C3.94795 9.74664 7.07015 11.0775 10.0895 12.3645C10.6243 12.5925 11.1597 12.8207 11.6985 13.0524C11.7177 13.0607 11.7371 13.0677 11.7566 13.0739L13.5956 14.9129C13.5933 14.9126 13.591 14.9123 13.5887 14.9119C12.4002 14.7315 11.1712 14.5449 9.93075 14.3188C9.58817 14.2562 9.26055 14.4832 9.19807 14.8254C9.13558 15.1677 9.36251 15.4956 9.70466 15.5581C10.9635 15.7876 12.2019 15.9757 13.3996 16.1575C13.9565 16.2421 14.5304 16.3294 15.1025 16.4201L17.961 19.2786C17.8612 19.2711 17.7605 19.2633 17.6617 19.2559C14.0593 18.9829 10.6569 18.7252 6.20125 17.3581C5.86867 17.2559 5.51644 17.4429 5.41432 17.7756C5.31228 18.1081 5.49914 18.4604 5.83172 18.5625C10.4216 19.9707 14.0539 20.2459 17.5666 20.512C18.1444 20.5559 18.7395 20.6012 19.3333 20.6509L21.6939 23.0116C21.4326 23.0278 21.1732 23.0445 20.9171 23.0609C17.0721 23.307 13.4402 23.5393 8.53291 22.4245C8.19454 22.3474 7.85616 22.56 7.77915 22.8992C7.70205 23.2385 7.91453 23.5759 8.25383 23.6529C11.209 24.3243 13.7614 24.5213 16.1205 24.5213C17.8206 24.5213 19.4205 24.4189 20.9975 24.318C21.6151 24.2785 22.251 24.2382 22.8864 24.2042L25.3263 26.6441C24.9566 26.7069 24.5897 26.7705 24.2291 26.8332C20.2163 27.5307 16.426 28.1894 11.1248 27.2521C10.7827 27.1916 10.4554 27.4201 10.3948 27.7626C10.3343 28.1052 10.5629 28.432 10.9055 28.4925C12.8521 28.8368 14.6192 28.9714 16.2645 28.9714C19.2838 28.9714 21.8926 28.518 24.4448 28.0743C25.0911 27.962 25.7564 27.8469 26.4221 27.7398L29.1754 30.4931C28.7255 30.5927 28.279 30.6934 27.8411 30.7925C23.5518 31.7628 19.5004 32.6793 13.9424 31.993C13.5983 31.9506 13.2828 32.1958 13.2402 32.5409C13.1975 32.8861 13.4428 33.2006 13.7881 33.2432C15.1704 33.4139 16.4709 33.4874 17.7074 33.4874C21.6375 33.4874 24.9197 32.7449 28.1191 32.0211C28.8107 31.8647 29.5226 31.7042 30.2346 31.5523L32.9845 34.3021C32.5167 34.411 32.0523 34.5214 31.597 34.6298C30.3062 34.9373 28.9713 35.2551 27.6261 35.5186C27.2847 35.5854 27.0621 35.9164 27.129 36.2578C27.1879 36.5584 27.4513 36.7668 27.7465 36.7668C27.7867 36.7668 27.8274 36.7629 27.8682 36.7549C29.2385 36.4865 30.5859 36.1656 31.889 35.8553C32.5909 35.6882 33.3134 35.5166 34.036 35.3536L36.6583 37.9759C36.1092 38.1298 35.5641 38.2859 35.0304 38.4388C30.3718 39.7737 25.972 41.0349 20.0693 40.6838C19.719 40.6636 19.4238 40.928 19.4032 41.2752C19.3825 41.6225 19.6472 41.9207 19.9945 41.9414C20.6834 41.9823 21.3543 42.0015 22.0093 42.0015C27.1705 42.0015 31.335 40.8082 35.3773 39.6498C36.1309 39.4339 36.9066 39.2122 37.682 38.9997L41.9245 43.2422C42.0476 43.3652 42.2088 43.4267 42.37 43.4267C42.5311 43.4267 42.6924 43.3653 42.8154 43.2422C43.0615 42.996 43.0615 42.5971 42.8155 42.3511Z" fill="white"/>
<path d="M6.93976 14.9659C7.22447 14.9659 7.48263 14.7715 7.55184 14.4825C7.63288 14.1442 7.42427 13.8043 7.08598 13.7232C5.54873 13.3549 4.07203 12.9189 2.57148 12.3902C2.24361 12.2746 1.88373 12.4468 1.76817 12.775C1.65252 13.1031 1.82478 13.4628 2.1529 13.5783C3.69486 14.1216 5.21254 14.5698 6.79253 14.9483C6.84183 14.9602 6.89113 14.9659 6.93976 14.9659Z" fill="white"/>
<path d="M27.2771 17.4539C27.2681 17.8017 27.5426 18.0909 27.8904 18.1C27.896 18.1001 27.9016 18.1001 27.9071 18.1001C28.2473 18.1001 28.5276 17.8288 28.5364 17.4866C28.5898 15.4372 28.4359 13.424 28.0659 11.332C28.0054 10.9894 27.6787 10.761 27.336 10.8215C26.9934 10.882 26.7648 11.2088 26.8254 11.5514C27.1804 13.5592 27.3282 15.4899 27.2771 17.4539Z" fill="white"/>
<path d="M24.9223 37.2304C25.2675 37.188 25.5131 36.8738 25.4707 36.5285C25.4283 36.1832 25.1134 35.9376 24.7688 35.9801C22.3119 36.2818 19.9329 36.2971 17.4958 36.0269C17.1511 35.9884 16.8387 36.2377 16.8004 36.5834C16.762 36.9292 17.0113 37.2405 17.3571 37.2789C18.5562 37.4118 19.7417 37.4784 20.9285 37.4784C22.2512 37.4784 23.5756 37.3958 24.9223 37.2304Z" fill="white"/>
</g>
<defs>
<clipPath id="clip0_1_227">
<rect width="43" height="43" fill="white" transform="translate(0 0.476364)"/>
</clipPath>
</defs>
</svg>
