<svg width="49" height="49" viewBox="0 0 49 49" fill="none" xmlns="http://www.w3.org/2000/svg">
<path d="M38.2767 25.3498C38.3012 25.1339 38.2315 24.9173 38.0861 24.755C37.9406 24.5926 37.7339 24.5 37.5157 24.5H34.4532C34.1278 24.5 33.8376 24.706 33.7304 25.013L33.4433 25.846C32.6831 28.887 31.37 30.7215 29.5516 33.2618L29.1581 33.8123C28.871 34.2135 28.4055 34.4531 27.9117 34.4531H27.8918C28.6222 33.6393 29.0708 32.5682 29.0708 31.3906C29.0708 28.8572 27.0105 26.7969 24.4771 26.7969C21.9436 26.7969 19.8833 28.8572 19.8833 31.3906C19.8833 32.5674 20.332 33.6393 21.0624 34.4531C20.5701 34.4524 20.1054 34.2127 19.8198 33.8146L19.4232 33.2587C17.6056 30.7207 16.2933 28.8855 15.5139 25.7786L15.2459 25.013C15.1388 24.706 14.8486 24.5 14.5232 24.5H11.4607C11.2425 24.5 11.035 24.5926 10.8903 24.755C10.7448 24.9173 10.6759 25.1339 10.6997 25.3498C11.0825 28.7913 12.3259 32.1141 14.2958 34.9592L18.3513 40.817V47.4688H19.8826V40.5781C19.8826 40.4227 19.8351 40.2703 19.7463 40.1425L15.5545 34.0879C13.8916 31.6862 12.7868 28.9169 12.335 26.032H13.9819L14.0477 26.2173C14.8777 29.5401 16.3339 31.5744 18.1775 34.1499L18.5726 34.7035C19.1476 35.5051 20.0793 35.9844 21.0662 35.9844H27.9117C28.8986 35.9844 29.8296 35.5051 30.4046 34.7004L30.7966 34.1522C32.6409 31.5759 34.0979 29.5409 34.9087 26.2839L34.9968 26.0312H36.6406C36.1896 28.9161 35.0848 31.6854 33.4211 34.0872L29.2293 40.1417C29.1413 40.2703 29.0938 40.4227 29.0938 40.5781V47.4688H30.6251V40.817L34.6806 34.9592C36.6513 32.1134 37.8947 28.7906 38.2767 25.3498ZM24.4779 28.3281C26.1668 28.3281 27.5404 29.7017 27.5404 31.3906C27.5404 33.0796 26.1668 34.4531 24.4779 34.4531C22.7889 34.4531 21.4154 33.0796 21.4154 31.3906C21.4154 29.7017 22.7889 28.3281 24.4779 28.3281Z" fill="white"/>
<path d="M24.0728 21.3073C24.2022 21.3939 24.3515 21.4375 24.5 21.4375C24.6485 21.4375 24.7978 21.3939 24.9272 21.3073C26.6231 20.1673 32.1562 16.1156 32.1562 11.8274C32.1562 9.7533 30.9588 8.19678 29.031 7.76497C27.5548 7.43192 25.6967 7.87139 24.5 9.24646C23.3033 7.87139 21.4467 7.42963 19.969 7.76497C18.0412 8.19678 16.8438 9.7533 16.8438 11.8274C16.8438 16.1156 22.3769 20.1673 24.0728 21.3073ZM20.3036 9.25947C20.5126 9.212 20.7331 9.18827 20.9582 9.18827C22.04 9.18827 23.2306 9.74181 23.8079 10.9653C23.9342 11.2333 24.2037 11.404 24.5 11.404C24.7963 11.404 25.0658 11.2325 25.1921 10.9653C25.8896 9.48533 27.4836 8.98538 28.6964 9.25871C29.2767 9.38963 30.625 9.89953 30.625 11.8274C30.625 15.1012 26.1645 18.5633 24.5 19.7416C22.8355 18.5633 18.375 15.1012 18.375 11.8274C18.375 9.89953 19.7233 9.38963 20.3036 9.25947Z" fill="white"/>
<path d="M34.4531 12.25H37.5156V13.7812H34.4531V12.25Z" fill="white"/>
<path d="M11.4844 12.25H14.5469V13.7812H11.4844V12.25Z" fill="white"/>
<path d="M23.7344 1.53125H25.2656V4.59375H23.7344V1.53125Z" fill="white"/>
<path d="M14.7524 5.13646L15.8352 4.0537L18.0007 6.21922L16.918 7.30197L14.7524 5.13646Z" fill="white"/>
<path d="M30.9917 6.21806L33.1572 4.05255L34.24 5.13531L32.0745 7.30082L30.9917 6.21806Z" fill="white"/>
</svg>
